<svg width="640" height="400" viewBox="0 0 640 400" fill="none" xmlns="http://www.w3.org/2000/svg">
  <defs>
    <linearGradient id="bg4" x1="40" y1="40" x2="600" y2="360" gradientUnits="userSpaceOnUse">
      <stop stop-color="#FDEAD7"/>
      <stop offset="1" stop-color="#FEDF89"/>
    </linearGradient>
  </defs>
  <rect width="640" height="400" fill="#FFFFFF"/>
  <rect x="32" y="24" width="576" height="352" fill="url(#bg4)"/>
  <rect x="120" y="122" width="220" height="160" rx="24" fill="#FFFFFF" opacity="0.92"/>
  <path d="M188 264c-2 24 14 40 38 40h42c24 0 40-16 38-40l-8-98c-2-20-18-34-38-34h-18c-20 0-36 14-38 34l-16 98Z" fill="#101828" opacity="0.12"/>
  <path d="M156 290h196" stroke="#101828" stroke-opacity="0.18" stroke-width="10" stroke-linecap="round"/>
  <path d="M220 150c10-14 24-20 44-20s34 6 44 20" stroke="#101828" stroke-opacity="0.18" stroke-width="10" stroke-linecap="round"/>
</svg>
